<svg width="1363" height="163" viewBox="0 0 1363 163" fill="none" xmlns="http://www.w3.org/2000/svg">
<path d="M0 15C0 6.71573 6.71573 0 15 0H37V163H15C6.71573 163 0 156.284 0 148V15Z" fill="#3575D2"/>
<rect width="1097" height="163" transform="translate(37)" fill="#F0F0F0"/>
<path d="M101.906 53.9219L94.3945 51.2383V48.0859L104.602 52.375V54.6367L101.906 53.9219ZM94.3945 56.1719L101.918 53.4297L104.602 52.7852V55.0352L94.3945 59.3242V56.1719ZM119.895 43.9375V61H116.391V43.9375H119.895ZM125.145 43.9375V46.6914H111.223V43.9375H125.145ZM129.492 51.0859V61H126.117V48.3203H129.293L129.492 51.0859ZM133.312 48.2383L133.254 51.3672C133.09 51.3438 132.891 51.3242 132.656 51.3086C132.43 51.2852 132.223 51.2734 132.035 51.2734C131.559 51.2734 131.145 51.3359 130.793 51.4609C130.449 51.5781 130.16 51.7539 129.926 51.9883C129.699 52.2227 129.527 52.5078 129.41 52.8438C129.301 53.1797 129.238 53.5625 129.223 53.9922L128.543 53.7812C128.543 52.9609 128.625 52.207 128.789 51.5195C128.953 50.8242 129.191 50.2188 129.504 49.7031C129.824 49.1875 130.215 48.7891 130.676 48.5078C131.137 48.2266 131.664 48.0859 132.258 48.0859C132.445 48.0859 132.637 48.1016 132.832 48.1328C133.027 48.1562 133.188 48.1914 133.312 48.2383ZM141.352 58.1406V52.4922C141.352 52.0859 141.285 51.7383 141.152 51.4492C141.02 51.1523 140.812 50.9219 140.531 50.7578C140.258 50.5938 139.902 50.5117 139.465 50.5117C139.09 50.5117 138.766 50.5781 138.492 50.7109C138.219 50.8359 138.008 51.0195 137.859 51.2617C137.711 51.4961 137.637 51.7734 137.637 52.0938H134.262C134.262 51.5547 134.387 51.043 134.637 50.5586C134.887 50.0742 135.25 49.6484 135.727 49.2812C136.203 48.9062 136.77 48.6133 137.426 48.4023C138.09 48.1914 138.832 48.0859 139.652 48.0859C140.637 48.0859 141.512 48.25 142.277 48.5781C143.043 48.9062 143.645 49.3984 144.082 50.0547C144.527 50.7109 144.75 51.5312 144.75 52.5156V57.9414C144.75 58.6367 144.793 59.207 144.879 59.6523C144.965 60.0898 145.09 60.4727 145.254 60.8008V61H141.844C141.68 60.6562 141.555 60.2266 141.469 59.7109C141.391 59.1875 141.352 58.6641 141.352 58.1406ZM141.797 53.2773L141.82 55.1875H139.934C139.488 55.1875 139.102 55.2383 138.773 55.3398C138.445 55.4414 138.176 55.5859 137.965 55.7734C137.754 55.9531 137.598 56.1641 137.496 56.4062C137.402 56.6484 137.355 56.9141 137.355 57.2031C137.355 57.4922 137.422 57.7539 137.555 57.9883C137.688 58.2148 137.879 58.3945 138.129 58.5273C138.379 58.6523 138.672 58.7148 139.008 58.7148C139.516 58.7148 139.957 58.6133 140.332 58.4102C140.707 58.207 140.996 57.957 141.199 57.6602C141.41 57.3633 141.52 57.082 141.527 56.8164L142.418 58.2461C142.293 58.5664 142.121 58.8984 141.902 59.2422C141.691 59.5859 141.422 59.9102 141.094 60.2148C140.766 60.5117 140.371 60.7578 139.91 60.9531C139.449 61.1406 138.902 61.2344 138.27 61.2344C137.465 61.2344 136.734 61.0742 136.078 60.7539C135.43 60.4258 134.914 59.9766 134.531 59.4062C134.156 58.8281 133.969 58.1719 133.969 57.4375C133.969 56.7734 134.094 56.1836 134.344 55.668C134.594 55.1523 134.961 54.7188 135.445 54.3672C135.938 54.0078 136.551 53.7383 137.285 53.5586C138.02 53.3711 138.871 53.2773 139.84 53.2773H141.797ZM151.477 58.5391L154.289 48.3203H157.816L153.539 61H151.406L151.477 58.5391ZM149.543 48.3203L152.367 58.5508L152.426 61H150.281L146.004 48.3203H149.543ZM165 61.2344C164.016 61.2344 163.133 61.0781 162.352 60.7656C161.57 60.4453 160.906 60.0039 160.359 59.4414C159.82 58.8789 159.406 58.2266 159.117 57.4844C158.828 56.7344 158.684 55.9375 158.684 55.0938V54.625C158.684 53.6641 158.82 52.7852 159.094 51.9883C159.367 51.1914 159.758 50.5 160.266 49.9141C160.781 49.3281 161.406 48.8789 162.141 48.5664C162.875 48.2461 163.703 48.0859 164.625 48.0859C165.523 48.0859 166.32 48.2344 167.016 48.5312C167.711 48.8281 168.293 49.25 168.762 49.7969C169.238 50.3438 169.598 51 169.84 51.7656C170.082 52.5234 170.203 53.3672 170.203 54.2969V55.7031H160.125V53.4531H166.887V53.1953C166.887 52.7266 166.801 52.3086 166.629 51.9414C166.465 51.5664 166.215 51.2695 165.879 51.0508C165.543 50.832 165.113 50.7227 164.59 50.7227C164.145 50.7227 163.762 50.8203 163.441 51.0156C163.121 51.2109 162.859 51.4844 162.656 51.8359C162.461 52.1875 162.312 52.6016 162.211 53.0781C162.117 53.5469 162.07 54.0625 162.07 54.625V55.0938C162.07 55.6016 162.141 56.0703 162.281 56.5C162.43 56.9297 162.637 57.3008 162.902 57.6133C163.176 57.9258 163.504 58.168 163.887 58.3398C164.277 58.5117 164.719 58.5977 165.211 58.5977C165.82 58.5977 166.387 58.4805 166.91 58.2461C167.441 58.0039 167.898 57.6406 168.281 57.1562L169.922 58.9375C169.656 59.3203 169.293 59.6875 168.832 60.0391C168.379 60.3906 167.832 60.6797 167.191 60.9062C166.551 61.125 165.82 61.2344 165 61.2344ZM175.688 43V61H172.301V43H175.688ZM191.66 43.9375V61H188.156V43.9375H191.66ZM196.91 43.9375V46.6914H182.988V43.9375H196.91ZM202.266 48.3203V61H198.879V48.3203H202.266ZM198.668 45.0156C198.668 44.5234 198.84 44.1172 199.184 43.7969C199.527 43.4766 199.988 43.3164 200.566 43.3164C201.137 43.3164 201.594 43.4766 201.938 43.7969C202.289 44.1172 202.465 44.5234 202.465 45.0156C202.465 45.5078 202.289 45.9141 201.938 46.2344C201.594 46.5547 201.137 46.7148 200.566 46.7148C199.988 46.7148 199.527 46.5547 199.184 46.2344C198.84 45.9141 198.668 45.5078 198.668 45.0156ZM208.43 50.9453V61H205.043V48.3203H208.219L208.43 50.9453ZM207.961 54.2148H207.023C207.023 53.332 207.129 52.5195 207.34 51.7773C207.559 51.0273 207.875 50.3789 208.289 49.832C208.711 49.2773 209.23 48.8477 209.848 48.543C210.465 48.2383 211.18 48.0859 211.992 48.0859C212.555 48.0859 213.07 48.1719 213.539 48.3438C214.008 48.5078 214.41 48.7695 214.746 49.1289C215.09 49.4805 215.355 49.9414 215.543 50.5117C215.73 51.0742 215.824 51.75 215.824 52.5391V61H212.449V52.9141C212.449 52.3359 212.371 51.8906 212.215 51.5781C212.059 51.2656 211.836 51.0469 211.547 50.9219C211.266 50.7969 210.926 50.7344 210.527 50.7344C210.09 50.7344 209.707 50.8242 209.379 51.0039C209.059 51.1836 208.793 51.4336 208.582 51.7539C208.371 52.0664 208.215 52.4336 208.113 52.8555C208.012 53.2773 207.961 53.7305 207.961 54.2148ZM215.508 53.8281L214.301 53.9805C214.301 53.1523 214.402 52.3828 214.605 51.6719C214.816 50.9609 215.125 50.3359 215.531 49.7969C215.945 49.2578 216.457 48.8398 217.066 48.543C217.676 48.2383 218.379 48.0859 219.176 48.0859C219.785 48.0859 220.34 48.1758 220.84 48.3555C221.34 48.5273 221.766 48.8047 222.117 49.1875C222.477 49.5625 222.75 50.0547 222.938 50.6641C223.133 51.2734 223.23 52.0195 223.23 52.9023V61H219.844V52.9023C219.844 52.3164 219.766 51.8711 219.609 51.5664C219.461 51.2539 219.242 51.0391 218.953 50.9219C218.672 50.7969 218.336 50.7344 217.945 50.7344C217.539 50.7344 217.184 50.8164 216.879 50.9805C216.574 51.1367 216.32 51.3555 216.117 51.6367C215.914 51.918 215.762 52.2461 215.66 52.6211C215.559 52.9883 215.508 53.3906 215.508 53.8281ZM231.68 61.2344C230.695 61.2344 229.812 61.0781 229.031 60.7656C228.25 60.4453 227.586 60.0039 227.039 59.4414C226.5 58.8789 226.086 58.2266 225.797 57.4844C225.508 56.7344 225.363 55.9375 225.363 55.0938V54.625C225.363 53.6641 225.5 52.7852 225.773 51.9883C226.047 51.1914 226.438 50.5 226.945 49.9141C227.461 49.3281 228.086 48.8789 228.82 48.5664C229.555 48.2461 230.383 48.0859 231.305 48.0859C232.203 48.0859 233 48.2344 233.695 48.5312C234.391 48.8281 234.973 49.25 235.441 49.7969C235.918 50.3438 236.277 51 236.52 51.7656C236.762 52.5234 236.883 53.3672 236.883 54.2969V55.7031H226.805V53.4531H233.566V53.1953C233.566 52.7266 233.48 52.3086 233.309 51.9414C233.145 51.5664 232.895 51.2695 232.559 51.0508C232.223 50.832 231.793 50.7227 231.27 50.7227C230.824 50.7227 230.441 50.8203 230.121 51.0156C229.801 51.2109 229.539 51.4844 229.336 51.8359C229.141 52.1875 228.992 52.6016 228.891 53.0781C228.797 53.5469 228.75 54.0625 228.75 54.625V55.0938C228.75 55.6016 228.82 56.0703 228.961 56.5C229.109 56.9297 229.316 57.3008 229.582 57.6133C229.855 57.9258 230.184 58.168 230.566 58.3398C230.957 58.5117 231.398 58.5977 231.891 58.5977C232.5 58.5977 233.066 58.4805 233.59 58.2461C234.121 58.0039 234.578 57.6406 234.961 57.1562L236.602 58.9375C236.336 59.3203 235.973 59.6875 235.512 60.0391C235.059 60.3906 234.512 60.6797 233.871 60.9062C233.23 61.125 232.5 61.2344 231.68 61.2344Z" fill="#888888"/>
<path d="M118.594 98.4219V104.75H101.086V98.4219H118.594ZM103.828 84.875V119H95.6016V84.875H103.828ZM124.125 84.875V119H115.922V84.875H124.125ZM127.992 106.578V106.086C127.992 104.227 128.258 102.516 128.789 100.953C129.32 99.375 130.102 98.0078 131.133 96.8516C132.164 95.6953 133.438 94.7969 134.953 94.1562C136.469 93.5 138.219 93.1719 140.203 93.1719C142.203 93.1719 143.961 93.5 145.477 94.1562C147.008 94.7969 148.289 95.6953 149.32 96.8516C150.352 98.0078 151.133 99.375 151.664 100.953C152.195 102.516 152.461 104.227 152.461 106.086V106.578C152.461 108.422 152.195 110.133 151.664 111.711C151.133 113.273 150.352 114.641 149.32 115.812C148.289 116.969 147.016 117.867 145.5 118.508C143.984 119.148 142.234 119.469 140.25 119.469C138.266 119.469 136.508 119.148 134.977 118.508C133.445 117.867 132.164 116.969 131.133 115.812C130.102 114.641 129.32 113.273 128.789 111.711C128.258 110.133 127.992 108.422 127.992 106.578ZM135.891 106.086V106.578C135.891 107.531 135.961 108.422 136.102 109.25C136.242 110.078 136.477 110.805 136.805 111.43C137.133 112.039 137.578 112.516 138.141 112.859C138.703 113.203 139.406 113.375 140.25 113.375C141.078 113.375 141.766 113.203 142.312 112.859C142.875 112.516 143.32 112.039 143.648 111.43C143.977 110.805 144.211 110.078 144.352 109.25C144.492 108.422 144.562 107.531 144.562 106.578V106.086C144.562 105.164 144.492 104.297 144.352 103.484C144.211 102.656 143.977 101.93 143.648 101.305C143.32 100.664 142.875 100.164 142.312 99.8047C141.75 99.4453 141.047 99.2656 140.203 99.2656C139.375 99.2656 138.68 99.4453 138.117 99.8047C137.57 100.164 137.133 100.664 136.805 101.305C136.477 101.93 136.242 102.656 136.102 103.484C135.961 104.297 135.891 105.164 135.891 106.086ZM163.688 111.453L168.375 93.6406H173.32L171.562 102.57L166.922 119H162.961L163.688 111.453ZM161.836 93.6406L164.742 111.312L165.07 119H160.266L154.266 93.6406H161.836ZM177.492 110.938L180.422 93.6406H187.992L182.039 119H177.234L177.492 110.938ZM173.883 93.6406L178.617 111.406L179.344 119H175.336L170.789 102.617L169.102 93.6406H173.883ZM218.297 84.875V119H210.07V84.875H218.297ZM228.562 84.875V91.2266H200.039V84.875H228.562ZM225.773 106.578V106.086C225.773 104.227 226.039 102.516 226.57 100.953C227.102 99.375 227.883 98.0078 228.914 96.8516C229.945 95.6953 231.219 94.7969 232.734 94.1562C234.25 93.5 236 93.1719 237.984 93.1719C239.984 93.1719 241.742 93.5 243.258 94.1562C244.789 94.7969 246.07 95.6953 247.102 96.8516C248.133 98.0078 248.914 99.375 249.445 100.953C249.977 102.516 250.242 104.227 250.242 106.086V106.578C250.242 108.422 249.977 110.133 249.445 111.711C248.914 113.273 248.133 114.641 247.102 115.812C246.07 116.969 244.797 117.867 243.281 118.508C241.766 119.148 240.016 119.469 238.031 119.469C236.047 119.469 234.289 119.148 232.758 118.508C231.227 117.867 229.945 116.969 228.914 115.812C227.883 114.641 227.102 113.273 226.57 111.711C226.039 110.133 225.773 108.422 225.773 106.578ZM233.672 106.086V106.578C233.672 107.531 233.742 108.422 233.883 109.25C234.023 110.078 234.258 110.805 234.586 111.43C234.914 112.039 235.359 112.516 235.922 112.859C236.484 113.203 237.188 113.375 238.031 113.375C238.859 113.375 239.547 113.203 240.094 112.859C240.656 112.516 241.102 112.039 241.43 111.43C241.758 110.805 241.992 110.078 242.133 109.25C242.273 108.422 242.344 107.531 242.344 106.578V106.086C242.344 105.164 242.273 104.297 242.133 103.484C241.992 102.656 241.758 101.93 241.43 101.305C241.102 100.664 240.656 100.164 240.094 99.8047C239.531 99.4453 238.828 99.2656 237.984 99.2656C237.156 99.2656 236.461 99.4453 235.898 99.8047C235.352 100.164 234.914 100.664 234.586 101.305C234.258 101.93 234.023 102.656 233.883 103.484C233.742 104.297 233.672 105.164 233.672 106.086ZM266.086 84.875H279.516C282.141 84.875 284.422 85.2656 286.359 86.0469C288.297 86.8281 289.789 87.9844 290.836 89.5156C291.898 91.0469 292.43 92.9375 292.43 95.1875C292.43 97.1406 292.125 98.7734 291.516 100.086C290.906 101.398 290.055 102.484 288.961 103.344C287.883 104.188 286.625 104.883 285.188 105.43L282.492 106.953H271.219L271.172 100.602H279.516C280.562 100.602 281.43 100.414 282.117 100.039C282.805 99.6641 283.32 99.1328 283.664 98.4453C284.023 97.7422 284.203 96.9062 284.203 95.9375C284.203 94.9531 284.023 94.1094 283.664 93.4062C283.305 92.7031 282.773 92.1641 282.07 91.7891C281.383 91.4141 280.531 91.2266 279.516 91.2266H274.312V119H266.086V84.875ZM284.766 119L277.219 103.906L285.938 103.859L293.578 118.648V119H284.766ZM311.836 112.836V93.6406H319.758V119H312.352L311.836 112.836ZM312.586 107.68L314.648 107.633C314.648 109.336 314.445 110.914 314.039 112.367C313.633 113.805 313.031 115.055 312.234 116.117C311.453 117.18 310.484 118.008 309.328 118.602C308.188 119.18 306.867 119.469 305.367 119.469C304.117 119.469 302.969 119.297 301.922 118.953C300.891 118.594 300 118.039 299.25 117.289C298.5 116.523 297.914 115.547 297.492 114.359C297.086 113.156 296.883 111.719 296.883 110.047V93.6406H304.781V110.094C304.781 110.656 304.852 111.141 304.992 111.547C305.133 111.953 305.336 112.297 305.602 112.578C305.867 112.844 306.195 113.047 306.586 113.188C306.992 113.312 307.453 113.375 307.969 113.375C309.156 113.375 310.086 113.125 310.758 112.625C311.43 112.125 311.898 111.445 312.164 110.586C312.445 109.727 312.586 108.758 312.586 107.68ZM331.875 99.0547V119H323.977V93.6406H331.383L331.875 99.0547ZM330.938 105.453L329.086 105.5C329.086 103.562 329.32 101.836 329.789 100.32C330.258 98.7891 330.922 97.4922 331.781 96.4297C332.641 95.3672 333.664 94.5625 334.852 94.0156C336.055 93.4531 337.391 93.1719 338.859 93.1719C340.031 93.1719 341.102 93.3438 342.07 93.6875C343.055 94.0312 343.898 94.5859 344.602 95.3516C345.32 96.1172 345.867 97.1328 346.242 98.3984C346.633 99.6484 346.828 101.195 346.828 103.039V119H338.883V103.016C338.883 102 338.742 101.227 338.461 100.695C338.18 100.148 337.773 99.7734 337.242 99.5703C336.711 99.3672 336.062 99.2656 335.297 99.2656C334.484 99.2656 333.797 99.4219 333.234 99.7344C332.672 100.047 332.219 100.484 331.875 101.047C331.547 101.594 331.305 102.242 331.148 102.992C331.008 103.742 330.938 104.562 330.938 105.453ZM363.773 108.195H357.047C357.047 106.82 357.141 105.609 357.328 104.562C357.531 103.5 357.875 102.547 358.359 101.703C358.844 100.859 359.5 100.078 360.328 99.3594C361.062 98.75 361.695 98.1641 362.227 97.6016C362.758 97.0391 363.164 96.4688 363.445 95.8906C363.727 95.3125 363.867 94.6953 363.867 94.0391C363.867 93.2266 363.75 92.5625 363.516 92.0469C363.297 91.5312 362.961 91.1484 362.508 90.8984C362.07 90.6328 361.516 90.5 360.844 90.5C360.297 90.5 359.781 90.6328 359.297 90.8984C358.828 91.1641 358.445 91.5781 358.148 92.1406C357.852 92.6875 357.688 93.4141 357.656 94.3203H349.711C349.758 91.9922 350.273 90.1016 351.258 88.6484C352.258 87.1797 353.586 86.1094 355.242 85.4375C356.914 84.75 358.781 84.4062 360.844 84.4062C363.125 84.4062 365.086 84.7578 366.727 85.4609C368.367 86.1641 369.625 87.2109 370.5 88.6016C371.375 89.9766 371.812 91.6719 371.812 93.6875C371.812 95.0312 371.555 96.2031 371.039 97.2031C370.539 98.1875 369.859 99.1094 369 99.9688C368.156 100.812 367.211 101.719 366.164 102.688C365.258 103.484 364.641 104.297 364.312 105.125C363.984 105.938 363.805 106.961 363.773 108.195ZM356.086 115.32C356.086 114.195 356.492 113.258 357.305 112.508C358.117 111.742 359.172 111.359 360.469 111.359C361.766 111.359 362.82 111.742 363.633 112.508C364.445 113.258 364.852 114.195 364.852 115.32C364.852 116.445 364.445 117.391 363.633 118.156C362.82 118.906 361.766 119.281 360.469 119.281C359.172 119.281 358.117 118.906 357.305 118.156C356.492 117.391 356.086 116.445 356.086 115.32Z" fill="black"/>
<path d="M1134 0H1348C1356.28 0 1363 6.71573 1363 15V148C1363 156.284 1356.28 163 1348 163H1134V0Z" fill="#3575D2"/>
<path d="M1260.62 78.8078C1263.81 78.8078 1266.93 79.7552 1269.59 81.5302C1272.25 83.3052 1274.32 85.8281 1275.54 88.7798C1276.76 91.7315 1277.08 94.9795 1276.46 98.1131C1275.84 101.247 1274.3 104.125 1272.04 106.384C1269.78 108.643 1266.9 110.182 1263.77 110.805C1260.63 111.428 1257.39 111.108 1254.43 109.886C1251.48 108.663 1248.96 106.593 1247.18 103.936C1245.41 101.28 1244.46 98.1565 1244.46 94.9616C1244.46 90.6774 1246.16 86.5686 1249.19 83.5392C1252.22 80.5097 1256.33 78.8078 1260.62 78.8078ZM1260.62 73.4232C1256.36 73.4232 1252.19 74.6864 1248.65 77.0531C1245.11 79.4198 1242.35 82.7836 1240.72 86.7192C1239.09 90.6549 1238.66 94.9855 1239.49 99.1636C1240.32 103.342 1242.37 107.179 1245.39 110.192C1248.4 113.204 1252.24 115.255 1256.41 116.086C1260.59 116.917 1264.92 116.491 1268.86 114.861C1272.79 113.23 1276.16 110.47 1278.52 106.928C1280.89 103.386 1282.15 99.2215 1282.15 94.9616C1282.15 89.2493 1279.88 83.7709 1275.85 79.7317C1271.81 75.6924 1266.33 73.4232 1260.62 73.4232Z" fill="white"/>
<path d="M1274.08 46.4999H1220.23C1218.8 46.4999 1217.43 47.0672 1216.42 48.0771C1215.41 49.0869 1214.85 50.4565 1214.85 51.8845V105.731C1214.85 107.159 1215.41 108.528 1216.42 109.538C1217.43 110.548 1218.8 111.115 1220.23 111.115H1231V105.731H1220.23V68.0383H1279.46V51.8845C1279.46 50.4565 1278.89 49.0869 1277.88 48.0771C1276.87 47.0672 1275.5 46.4999 1274.08 46.4999ZM1220.23 62.6537V51.8845H1274.08V62.6537H1220.23Z" fill="white"/>
<path d="M1255.23 86.8848V103.039L1268.69 94.9617L1255.23 86.8848Z" fill="white"/>
</svg>
